<svg width="300" height="76" viewBox="0 0 300 76" fill="none" xmlns="http://www.w3.org/2000/svg">
<rect width="300" height="76" fill="white"/>
<rect width="300" height="71" fill="white" transform="translate(0 2)"/>
<rect width="121.684" height="131.857" fill="black" fill-opacity="0" transform="translate(0 2) scale(0.538462)"/>
<rect width="121.684" height="131.857" fill="black" fill-opacity="0" transform="translate(0 2) scale(0.538462)"/>
<path d="M32.7611 12.8138C26.2088 12.8138 20.8663 18.6031 20.8663 25.7031C20.8663 32.8031 26.2088 38.5923 32.7611 38.5923C39.3133 38.5923 44.6559 32.8031 44.6559 25.7031C44.6559 18.5484 39.3133 12.8138 32.7611 12.8138ZM40.4725 26.14L28.4769 33.4038C28.3761 33.4584 28.3257 33.4584 28.2249 33.4584C28.1241 33.4584 28.0233 33.4584 27.9729 33.4038C27.8217 33.3492 27.7209 33.1308 27.7209 32.9669V18.3846C27.7209 18.1661 27.8217 18.0023 27.9729 17.8931C28.1241 17.7838 28.3257 17.7838 28.4769 17.8931L40.4725 25.1569C40.6237 25.2661 40.7245 25.43 40.7245 25.6484C40.7245 25.8669 40.6237 26.0308 40.4725 26.14Z" fill="#568EB9"/>
<path d="M62.4981 2H3.0241C1.36085 2 0 3.47462 0 5.27692V46.0746C0 47.8769 1.36085 49.3515 3.0241 49.3515H21.4711L10.1811 68.9038C9.82833 69.5592 9.72753 70.2692 9.92914 70.9792C10.0803 71.6892 10.534 72.29 11.0884 72.6177C11.4916 72.8908 11.8948 73 12.3484 73C13.2556 73 14.0621 72.4538 14.5157 71.6346L27.4185 49.2969H38.1037L50.9561 71.58C51.4097 72.3992 52.2666 72.9454 53.1234 72.9454C53.577 72.9454 53.9802 72.8362 54.3834 72.5631C55.5931 71.7985 55.9963 70.16 55.2907 68.8492L44.0511 49.3515H62.4981C64.1614 49.3515 65.5222 47.8769 65.5222 46.0746V5.27692C65.5222 3.47462 64.1614 2 62.4981 2ZM3.22571 11.6669C4.08254 10.7385 5.19138 10.2469 6.40102 10.2469C7.61066 10.2469 8.71949 10.7385 9.57632 11.6669C9.77793 11.8854 9.77793 12.2131 9.57632 12.4315C8.71949 13.36 7.56026 13.8515 6.40102 13.8515C5.24178 13.8515 4.08254 13.36 3.22571 12.4315C3.0241 12.2677 3.0241 11.8854 3.22571 11.6669ZM3.22571 20.7331C4.08254 19.8046 5.19138 19.3131 6.40102 19.3131C7.61066 19.3131 8.71949 19.8046 9.57632 20.7331C9.77793 20.9515 9.77793 21.2792 9.57632 21.4977C8.71949 22.4262 7.56026 22.9177 6.40102 22.9177C5.24178 22.9177 4.08254 22.4262 3.22571 21.4977C3.0241 21.3338 3.0241 20.9515 3.22571 20.7331ZM9.57632 39.63C8.71949 40.5585 7.56026 41.05 6.40102 41.05C5.24178 41.05 4.08254 40.5585 3.22571 39.63C3.12491 39.5208 3.0745 39.3569 3.0745 39.2477C3.0745 39.0838 3.12491 38.9746 3.22571 38.8654C4.98977 36.9538 7.81226 36.9538 9.57632 38.8654C9.67713 38.9746 9.72753 39.0838 9.72753 39.2477C9.72753 39.4115 9.67713 39.5208 9.57632 39.63ZM9.57632 30.5638C8.71949 31.4923 7.56026 31.9838 6.40102 31.9838C5.24178 31.9838 4.08254 31.4923 3.22571 30.5638C3.12491 30.4546 3.0745 30.3454 3.0745 30.1815C3.0745 30.0177 3.12491 29.9085 3.22571 29.7992C4.08254 28.8708 5.19138 28.3792 6.40102 28.3792C7.61066 28.3792 8.71949 28.8708 9.57632 29.7992C9.67713 29.9085 9.72753 30.0177 9.72753 30.1815C9.72753 30.3454 9.67713 30.4546 9.57632 30.5638ZM53.7282 40.5038C53.7282 42.0877 52.569 43.3438 51.1073 43.3438H14.4149C12.9532 43.3438 11.794 42.0877 11.794 40.5038V10.8477C11.794 9.26385 12.9532 8.00769 14.4149 8.00769H51.0569C52.5186 8.00769 53.6778 9.26385 53.6778 10.8477V40.5038H53.7282ZM62.4477 39.63C61.5909 40.5585 60.482 41.05 59.2724 41.05C59.222 41.05 59.1716 41.05 59.1212 41.05H59.0204C57.9116 41.05 56.8027 40.5585 55.9459 39.63C55.8451 39.5208 55.7947 39.3569 55.7947 39.2477C55.7947 39.0838 55.8451 38.9746 55.9459 38.8654C56.8027 37.9369 57.9116 37.4454 59.0204 37.4454H59.1212C59.1716 37.4454 59.222 37.4454 59.2724 37.4454C60.482 37.4454 61.5909 37.9369 62.4477 38.8654C62.6493 39.0838 62.6493 39.4115 62.4477 39.63ZM55.7947 30.1815C55.7947 30.0177 55.8451 29.9085 55.9459 29.7992C56.8027 28.8708 57.9116 28.3792 59.0204 28.3792H59.1212C59.1716 28.3792 59.222 28.3792 59.2724 28.3792C60.482 28.3792 61.5909 28.8708 62.4477 29.7992C62.5485 29.9085 62.5989 30.0177 62.5989 30.1815C62.5989 30.3454 62.5485 30.4546 62.4477 30.5638C61.5909 31.4923 60.4316 31.9838 59.2724 31.9838H59.1212C57.962 31.9838 56.8027 31.4923 55.9459 30.5638C55.8451 30.4546 55.7947 30.3454 55.7947 30.1815ZM62.4477 21.4977C61.5909 22.4262 60.482 22.9177 59.2724 22.9177H59.1212C57.9116 22.9177 56.8027 22.4262 55.9459 21.4977C55.7443 21.2792 55.7443 20.9515 55.9459 20.7331C56.8531 19.75 58.0124 19.3131 59.222 19.3131H59.3228C60.5324 19.3131 61.6413 19.8046 62.4981 20.7331C62.6493 20.9515 62.6493 21.3338 62.4477 21.4977ZM62.4477 12.4315C61.5909 13.36 60.482 13.8515 59.2724 13.8515H59.1212C57.9116 13.8515 56.8027 13.36 55.9459 12.4315C55.7443 12.2131 55.7443 11.8854 55.9459 11.6669C56.8531 10.6838 58.0124 10.1923 59.222 10.2469H59.3228C60.5324 10.2469 61.6413 10.7385 62.4981 11.6669C62.6493 11.8854 62.6493 12.2677 62.4477 12.4315Z" fill="#568EB9"/>
<rect width="55.2422" height="13.9935" fill="black" fill-opacity="0" transform="translate(73.8929 8.63034) scale(4.09302)"/>
<path d="M119.478 54.8595C120.128 55.4224 120.127 56.1261 119.543 56.7594C114.738 62.459 107.919 65.9059 100.127 65.9059C85.8412 65.9059 73.8929 53.4523 73.8929 37.4093C73.8929 21.4364 85.8408 8.63034 100.127 8.63034C107.984 8.63034 114.867 12.1486 119.737 17.9185C120.322 18.5517 120.257 19.2554 119.672 19.8183L114.283 24.5327C113.633 25.0956 113.049 25.0253 112.529 24.392C109.737 21.2256 105.386 18.3412 100.192 18.3412C90.6464 18.3412 83.1794 27.2769 83.1794 37.4094C83.1794 47.6827 90.6464 56.1966 100.192 56.1966C105.322 56.1966 109.607 53.4524 112.335 50.3563C112.919 49.723 113.504 49.6526 114.153 50.1452L119.478 54.8595ZM131.946 65.906C128.764 65.906 126.037 63.0217 126.037 59.5036C126.037 56.0557 128.764 53.1003 131.946 53.1003C135.193 53.1003 137.855 56.0556 137.855 59.5036C137.855 63.0218 135.193 65.906 131.946 65.906V65.906ZM183.568 9.12342C184.217 9.12342 184.802 9.68768 184.802 10.4617V17.4981C184.802 18.2011 184.217 18.8343 183.568 18.8343H168.892V64.0066C168.892 64.851 168.373 65.4132 167.659 65.4132H162.854C160.776 65.4132 159.607 63.8652 159.607 61.8246V18.8318H144.996C144.347 18.8318 143.698 18.2689 143.698 17.4949V10.5287C143.698 9.75469 144.282 9.12142 144.996 9.12142H183.569L183.568 9.12342ZM221.622 30.5833C222.336 30.5833 222.792 31.2186 222.792 31.9223V64.078C222.792 64.7817 222.337 65.4142 221.623 65.4142H216.558C215.454 65.4142 214.415 63.9373 214.025 62.53C211.753 64.2891 208.766 65.8357 205 65.8357C198.376 65.8357 191.493 61.0515 191.493 52.3263V36.9164C191.493 34.9469 191.298 33.6797 191.038 32.3427C190.844 31.428 191.168 30.5836 191.818 30.5836H197.272C199.285 30.5836 200.454 32.1316 200.454 34.1018V51.622C200.454 55.5623 203.311 57.1808 206.362 57.1808C209.155 57.1808 211.687 55.4921 213.895 53.0997V31.92C213.895 31.2164 214.414 30.5831 215.129 30.5831H221.622L221.622 30.5833ZM247.92 30.2321C255.452 30.2321 262.724 36.9861 262.724 47.4707C262.724 57.8141 256.685 65.8344 247.594 65.8344C244.218 65.8344 241.556 64.71 239.543 63.2323C238.699 64.6396 236.88 65.4136 235.647 65.4136H232.27C231.621 65.4136 231.037 64.781 231.037 64.0774V15.9492C231.037 13.4161 230.582 12.2199 230.323 10.8831C230.128 9.96841 230.452 9.12404 231.167 9.12404H236.816C238.699 9.12404 239.998 10.4609 239.998 12.3608V32.4851C242.011 31.2186 244.609 30.2335 247.92 30.2335L247.92 30.2321ZM246.166 56.8996C250.451 56.8996 253.892 53.5221 253.892 47.4707C253.892 41.4193 249.801 39.2379 246.62 39.2379C244.217 39.2379 242.009 40.0823 239.996 41.4192V55.281C241.685 56.1957 243.698 56.8994 246.166 56.8994V56.8996ZM295.259 51.271C298.116 51.271 300 49.5815 300 46.2041C300 37.9713 294.026 30.0905 284.415 30.0905C275.324 30.0905 268.247 37.7604 268.247 47.9631C268.247 58.6586 275.714 65.7647 284.805 65.7647C290.584 65.7647 295.195 63.5834 297.857 59.5021C298.311 58.8689 298.182 58.3763 297.662 57.6727L296.168 55.4217C295.519 54.507 294.935 54.6477 294.156 55.0699C292.402 56.1254 289.026 57.2512 285.844 57.2512C281.948 57.2512 278.441 55.2106 277.662 51.271H295.259L295.259 51.271ZM277.726 43.8116C278.051 41.56 280.518 38.9564 284.22 38.9564C287.986 38.9564 290.324 41.4895 290.648 43.8116H277.726V43.8116Z" fill="#568EB9"/>
</svg>
